<svg width="666" height="184" viewBox="0 0 666 184" fill="none" xmlns="http://www.w3.org/2000/svg">
<path d="M163.867 1.40007C156.533 4.20007 151.467 8.20007 144.267 17.4001C136.667 27.0001 130.267 37.5334 123.2 51.9334C119.6 59.1334 117.333 62.3334 115.467 62.6001C113.6 62.8667 112.667 64.0667 112.667 66.0668C112.667 67.8001 109.867 72.6001 106.533 76.7334C103.2 81.0001 99.7333 85.8001 98.8 87.4001C95.6 93.5334 99.0666 92.2001 105.467 85.0001C109.067 81.0001 112 78.0668 112 78.4668C112 79.0001 109.333 87.0001 106 96.2001C98.6666 116.733 98.6666 117.133 104.133 115.667C109.867 113.933 111.067 112.867 122.533 97.6668C133.6 83.0001 142.267 73.9334 148.133 70.8668C153.467 68.2001 153.2 70.0668 146.8 82.7334C140.533 95.2668 138.933 104.333 141.867 110.067C144.133 114.467 146.4 115.667 152.133 115.667C158.533 115.667 164.933 112.2 173.2 104.333L180.933 97.0001L181.067 101C181.2 107.8 182.8 110.467 187.2 112.333C198.667 117.133 209.733 110.067 228.4 86.0668C232.8 80.3334 236.667 75.9334 237.067 76.2001C237.333 76.6001 233.2 86.4668 227.867 98.3334C220.533 114.733 217.2 120.6 214.133 122.867C211.867 124.467 204.933 129.4 198.8 133.8C178.667 147.933 166.4 162.6 166.4 172.333C166.4 178.333 168.267 180.6 174.8 182.6C181.867 184.6 188.533 182.467 196.4 175.667C203.733 169.267 210.4 158.867 221.067 137.4C228.267 123.267 230 120.733 236.133 116.333C240 113.667 248.667 105.933 255.6 99.2668C262.4 92.7334 268 87.5334 268 87.9334C268 88.3334 265.867 94.3334 263.333 101.133C258.933 113.133 257.867 117 259.333 117C259.6 117 262.267 116.067 265.067 115C268.933 113.4 272.267 110.067 278.667 101.267C292.667 82.3334 308.8 66.7334 311.733 69.5334C312.133 70.0668 309.467 76.7334 305.6 84.4668C301.733 92.0668 298.667 99.2668 298.667 100.333C298.667 101.533 299.867 102.333 301.733 102.333C303.867 102.333 308.533 98.7334 316.267 91.1334C322.533 85.0001 329.467 79.0001 331.733 77.8001L335.867 75.6668L333.733 80.7334C324.8 101.933 326.8 115.667 338.933 115.667C345.733 115.667 351.067 113.133 359.6 105.533L366.533 99.5334L368.533 104.2C372.267 113.133 382.267 116.067 392 111C394.533 109.667 401.2 103.933 406.8 98.2001L417.067 87.6668L415.867 92.6001C413.867 101.667 414.4 110.067 417.333 113C420.933 116.6 429.2 116.467 436.133 112.867C442.4 109.8 457.2 95.1334 462.4 87.1334C464.4 84.0668 469.2 77.2668 473.2 71.8001C480.267 62.0667 480.4 62.0667 485.6 62.7334C491.2 63.5334 494.667 65.6668 494.667 68.3334C494.667 69.2668 491.067 74.3334 486.667 79.5334C476.667 91.5334 473.333 97.9334 473.333 105.4C473.333 112.867 476.267 115.667 483.867 115.667C490.667 115.667 497.333 112.333 505.2 105.133C508.4 102.067 511.2 99.6668 511.467 99.6668C511.733 99.6668 512 100.733 512 102.2C512 105.267 517.6 111.267 522.133 113C530.4 116.2 543.333 108.067 557.867 90.6001C562.267 85.2668 566.133 81.2668 566.4 81.6668C567.067 82.3334 558.933 101.8 553.2 113.133C550 119.533 547.733 121.8 536.4 129.8C521.333 140.333 504.133 156.867 500.933 163.933C496.267 173.8 499.333 181.4 508.8 183.133C515.067 184.333 522.267 181.533 529.067 175.133C537.2 167.667 541.6 160.867 552.133 139.8C560.133 123.8 562 121 568.267 116.2C572.133 113.133 579.333 107 584.133 102.6L592.933 94.4668L593.733 101.4C594.933 111 600 115.667 609.467 115.667C617.733 115.667 621.867 113.533 629.067 105.8C636.533 97.6668 642 89.0001 644 81.8001C645.6 76.0668 645.6 76.0668 652.4 75.2668C656.267 74.8668 661.2 73.8001 663.333 72.8668C667.067 71.1334 666.267 71.0001 653.333 70.3334C645.6 69.9334 638.667 69.8001 637.867 70.0668C636.933 70.3334 636.4 73.2668 636.533 77.4001C636.667 86.3334 632.4 95.2668 623.333 104.6C616.933 111.267 614.267 112.467 608 111.667C604.667 111.267 602.667 107.533 602.667 101.667C602.667 89.0001 621.2 63.6667 630.533 63.6667C633.867 63.6667 634.667 64.2001 634.667 66.4668C634.667 70.0668 637.867 69.1334 638.4 65.2668C639.467 57.9334 628.533 54.6001 618.933 59.5334C613.333 62.4667 602.667 73.2668 599.6 79.2668C596.267 85.6668 566.667 113.267 566.667 109.8C566.667 109.667 570.533 101.4 575.2 91.5334C584.267 72.4668 584.4 71.2668 577.067 69.6668C573.333 68.7334 572.133 69.6668 560.267 81.9334C539.467 103.133 526.133 112.467 521.867 108.867C518.933 106.467 519.6 102.067 524.667 93.5334C530.667 83.4001 542.267 72.7334 553.867 67.0001C563.867 61.9334 573.067 60.8667 576 64.3334C577.6 66.3334 580 65.9334 580 63.5334C580 62.8667 578 61.0001 575.733 59.5334C566 53.5334 547.6 59.1334 530 73.4001C522.133 79.8001 521.333 80.7334 512.933 90.6001C505.733 99.1334 491.6 110.333 488 110.333C479.867 110.333 487.2 91.0001 502.533 71.8001C506.267 67.1334 509.333 62.2001 509.333 60.8667C509.333 58.6001 508.133 58.3334 498.4 58.3334C483.867 58.3334 482.667 57.4001 487.2 50.8667C490.8 45.4001 491.6 41.6667 489.333 40.3334C488.533 39.8001 484.533 42.8667 480.267 47.0001C476.133 51.2667 471.067 55.2667 469.067 55.9334C464.267 57.6667 464.4 59.5334 469.333 61.4001L473.2 62.8667L469.733 69.0001C461.467 83.1334 448.667 98.2001 438.533 105.8C431.733 110.733 428 111.533 425.2 108.2C422.667 105.133 425.467 93.2668 431.333 81.6668C435.733 73.0001 435.867 72.2001 433.733 70.7334C432.533 69.8001 430.667 69.0001 429.6 69.0001C428.533 69.0001 419.733 76.7334 410.133 86.0668C392.533 103.267 381.733 111.267 378 109.8C374.267 108.467 375.6 100.6 381.067 92.2001C394.133 72.0668 420.667 57.2667 431.333 64.2001C434.533 66.3334 434.667 66.3334 434.667 63.6667C434.667 62.0667 433.067 60.2001 430.667 59.0001C416.933 51.9334 392 64.0667 369.467 89.0001C364 95.0001 356.533 102.333 352.933 105.267C336.933 117.8 333.467 104.733 346 79.8001C348.533 74.6001 350.667 69.8001 350.667 69.0001C350.667 67.0001 343.733 67.4001 338.267 69.6668C335.733 70.7334 329.6 74.6001 324.8 78.2001C320 81.9334 316 84.7334 316 84.4668C316 84.2001 317.867 79.9334 320.133 75.0001C325.2 63.8001 324.933 59.1334 319.333 58.6001C313.333 58.0667 304.933 64.2001 288.667 81.2668L274.667 95.9334L277.467 88.0668C279.067 83.8001 282.133 76.4668 284.133 71.6668C288.133 62.0667 287.467 59.2667 281.6 59.9334C278.933 60.2001 277.333 62.2001 274.133 68.4668C271.867 72.8668 267.467 79.8001 264.267 83.8001C256.533 93.5334 234.667 112.733 234.667 109.667C234.667 109.267 239.2 99.0001 244.667 86.7334C250.133 74.6001 254.667 63.5334 254.667 62.2001C254.667 59.6667 252.133 58.3334 246.933 58.3334C244 58.3334 241.2 61.1334 230.4 74.7334C209.2 101.667 196.667 112.067 191.333 107.667C186.267 103.533 192.533 89.2668 204.933 76.7334C212.533 69.1334 213.467 67.5334 212 65.8001C207.067 59.8001 197.6 65.6668 187.467 80.7334C181.733 89.4001 168 103.667 161.333 108.2C156.4 111.533 152.267 111 151.2 107C149.733 101 151.867 93.1334 158.8 79.0001C166.4 63.6667 166.8 59.2667 160.933 58.6001C154.933 57.9334 147.067 63.6667 130.933 80.2001C122.667 88.7334 116 95.2668 116 94.6001C116.133 94.0668 118 88.6001 120.4 82.3334L124.667 71.0001L142 56.6001C164 38.3334 169.6 32.8667 176.133 23.1334C184.267 11.0001 182.933 2.20007 172.533 0.333405C170.4 -0.0665949 166.533 0.466739 163.867 1.40007ZM175.467 8.33341C176.8 11.5334 168.267 24.4667 157.333 36.0667C147.2 46.8667 130.667 60.8667 130.667 58.7334C130.667 57.0001 140.933 38.6001 146.133 31.1334C151.733 22.8667 153.6 20.7334 162.267 12.6001C169.333 6.33341 174.133 4.73341 175.467 8.33341ZM204.533 147.133C192.933 170.2 179.867 182.733 173.6 176.6C170.667 173.533 173.333 165.133 179.733 158.067C185.333 151.8 210.933 130.2 211.733 131C212.133 131.267 208.8 138.6 204.533 147.133ZM539.2 141.267C531.733 156.333 523.333 168.067 516.4 173.533C509.6 178.867 506.8 179.133 505.333 175C504 171 506 165 510.933 159.133C515.333 153.8 541.2 131.667 543.067 131.667C543.6 131.667 541.867 136.067 539.2 141.267Z" fill="#CA8787"/>
<path d="M33.7331 7.66683C17.0665 12.0668 6.7998 18.8668 2.53313 28.3335C-0.400203 34.8668 -0.66687 43.8002 1.9998 49.0002C4.13313 53.0002 11.5998 58.3335 15.1998 58.3335C18.6665 58.3335 17.7331 56.6002 11.9998 52.6002C5.86646 48.3335 4.3998 44.3335 6.53313 37.9335C9.9998 27.4002 24.6665 18.3335 45.0665 14.0668C56.3998 11.6668 61.0665 11.5335 81.9998 12.2002C95.1998 12.6002 110 13.4002 114.8 13.8002L123.733 14.7335L121.066 19.1335C116.4 27.0002 116.133 45.0002 120.8 45.0002C122.4 45.0002 122.666 44.0668 121.866 40.3335C120.8 34.4668 125.333 26.3335 134.4 18.2002C142.4 10.8668 143.333 9.40016 141.333 7.00016C138.933 4.06683 134.8 4.60016 130.133 8.06683L126 11.1335L102.666 8.20016C72.9331 4.33349 47.3331 4.06683 33.7331 7.66683Z" fill="#CA8787"/>
<path d="M73.9999 22.6002C65.9999 27.0002 57.5999 37.8002 56.6666 44.8668C56.3999 46.7335 49.8666 60.7335 42.1332 75.8002C28.7999 102.2 24.5332 114.2 27.4666 117C32.3999 121.4 38.6666 118.333 45.9999 107.667C50.9332 100.6 49.1999 99.1335 43.1999 105.4C30.1332 118.733 33.8666 104.6 51.7332 72.7335C66.5332 46.2002 81.1999 29.0002 88.7999 29.0002C93.3332 29.0002 92.7999 25.5335 87.9999 23.0002C83.4666 20.6002 77.7332 20.4668 73.9999 22.6002Z" fill="#CA8787"/>
</svg>
