<?xml version="1.0" standalone="no"?>
<!DOCTYPE svg PUBLIC "-//W3C//DTD SVG 20010904//EN"
 "http://www.w3.org/TR/2001/REC-SVG-20010904/DTD/svg10.dtd">
<svg version="1.0" xmlns="http://www.w3.org/2000/svg"
 width="505.000000pt" height="142.000000pt" viewBox="0 0 505.000000 142.000000"
 preserveAspectRatio="xMidYMid meet">

<g transform="translate(0.000000,142.000000) scale(0.100000,-0.100000)"
fill="#000000" stroke="none">
<path d="M1259 1387 c-55 -21 -93 -51 -147 -120 -57 -72 -105 -151 -158 -259
-27 -54 -44 -78 -58 -80 -14 -2 -21 -11 -21 -26 0 -13 -21 -49 -46 -80 -25
-32 -51 -68 -58 -80 -24 -46 2 -36 50 18 27 30 49 52 49 49 0 -4 -20 -64 -45
-133 -55 -154 -55 -157 -14 -146 43 13 52 21 138 135 83 110 148 178 192 201
40 20 38 6 -10 -89 -47 -94 -59 -162 -37 -205 17 -33 34 -42 77 -42 48 0 96
26 158 85 l58 55 1 -30 c1 -51 13 -71 46 -85 86 -36 169 17 309 197 33 43 62
76 65 74 2 -3 -29 -77 -69 -166 -55 -123 -80 -167 -103 -184 -17 -12 -69 -49
-115 -82 -151 -106 -243 -216 -243 -289 0 -45 14 -62 63 -77 53 -15 103 1 162
52 55 48 105 126 185 287 54 106 67 125 113 158 29 20 94 78 146 128 51 49 93
88 93 85 0 -3 -16 -48 -35 -99 -33 -90 -41 -119 -30 -119 2 0 22 7 43 15 29
12 54 37 102 103 105 142 226 259 248 238 3 -4 -17 -54 -46 -112 -29 -57 -52
-111 -52 -119 0 -9 9 -15 23 -15 16 0 51 27 109 84 47 46 99 91 116 100 l31
16 -16 -38 c-67 -159 -52 -262 39 -262 51 0 91 19 155 76 l52 45 15 -35 c28
-67 103 -89 176 -51 19 10 69 53 111 96 l77 79 -9 -37 c-15 -68 -11 -131 11
-153 27 -27 89 -26 141 1 47 23 158 133 197 193 15 23 51 74 81 115 53 73 54
73 93 68 42 -6 68 -22 68 -42 0 -7 -27 -45 -60 -84 -75 -90 -100 -138 -100
-194 0 -56 22 -77 79 -77 51 0 101 25 160 79 24 23 45 41 47 41 2 0 4 -8 4
-19 0 -23 42 -68 76 -81 62 -24 159 37 268 168 33 40 62 70 64 67 5 -5 -56
-151 -99 -236 -24 -48 -41 -65 -126 -125 -113 -79 -242 -203 -266 -256 -35
-74 -12 -131 59 -144 47 -9 101 12 152 60 61 56 94 107 173 265 60 120 74 141
121 177 29 23 83 69 119 102 l66 61 6 -52 c9 -72 47 -107 118 -107 62 0 93 16
147 74 56 61 97 126 112 180 12 43 12 43 63 49 29 3 66 11 82 18 28 13 22 14
-75 19 -58 3 -110 4 -116 2 -7 -2 -11 -24 -10 -55 1 -67 -31 -134 -99 -204
-48 -50 -68 -59 -115 -53 -25 3 -40 31 -40 75 0 95 139 285 209 285 25 0 31
-4 31 -21 0 -27 24 -20 28 9 8 55 -74 80 -146 43 -42 -22 -122 -103 -145 -148
-25 -48 -247 -255 -247 -229 0 1 29 63 64 137 68 143 69 152 14 164 -28 7 -37
0 -126 -92 -156 -159 -256 -229 -288 -202 -22 18 -17 51 21 115 45 76 132 156
219 199 75 38 144 46 166 20 12 -15 30 -12 30 6 0 5 -15 19 -32 30 -73 45
-211 3 -343 -104 -59 -48 -65 -55 -128 -129 -54 -64 -160 -148 -187 -148 -61
0 -6 145 109 289 28 35 51 72 51 82 0 17 -9 19 -82 19 -109 0 -118 7 -84 56
27 41 33 69 16 79 -6 4 -36 -19 -68 -50 -31 -32 -69 -62 -84 -67 -36 -13 -35
-27 2 -41 l29 -11 -26 -46 c-62 -106 -158 -219 -234 -276 -51 -37 -79 -43
-100 -18 -19 23 2 112 46 199 33 65 34 71 18 82 -9 7 -23 13 -31 13 -8 0 -74
-58 -146 -128 -132 -129 -213 -189 -241 -178 -28 10 -18 69 23 132 98 151 297
262 377 210 24 -16 25 -16 25 4 0 12 -12 26 -30 35 -103 53 -290 -38 -459
-225 -41 -45 -97 -100 -124 -122 -120 -94 -146 4 -52 191 19 39 35 75 35 81 0
15 -52 12 -93 -5 -19 -8 -65 -37 -101 -64 -36 -28 -66 -49 -66 -47 0 2 14 34
31 71 38 84 36 119 -6 123 -45 4 -108 -42 -230 -170 l-105 -110 21 59 c12 32
35 87 50 123 30 72 25 93 -19 88 -20 -2 -32 -17 -56 -64 -17 -33 -50 -85 -74
-115 -58 -73 -222 -217 -222 -194 0 3 34 80 75 172 41 91 75 174 75 184 0 19
-19 29 -58 29 -22 0 -43 -21 -124 -123 -159 -202 -253 -280 -293 -247 -38 31
9 138 102 232 57 57 64 69 53 82 -37 45 -108 1 -184 -112 -43 -65 -146 -172
-196 -206 -37 -25 -68 -21 -76 9 -11 45 5 104 57 210 57 115 60 148 16 153
-45 5 -104 -38 -225 -162 -62 -64 -112 -113 -112 -108 1 4 15 45 33 92 l32 85
130 108 c165 137 207 178 256 251 61 91 51 157 -27 171 -16 3 -45 -1 -65 -8z
m87 -52 c10 -24 -54 -121 -136 -208 -76 -81 -200 -186 -200 -170 0 13 77 151
116 207 42 62 56 78 121 139 53 47 89 59 99 32z m218 -1041 c-87 -173 -185
-267 -232 -221 -22 23 -2 86 46 139 42 47 234 209 240 203 3 -2 -22 -57 -54
-121z m2510 44 c-56 -113 -119 -201 -171 -242 -51 -40 -72 -42 -83 -11 -10 30
5 75 42 119 33 40 227 206 241 206 4 0 -9 -33 -29 -72z"/>
<path d="M283 1340 c-125 -33 -202 -84 -234 -155 -22 -49 -24 -116 -4 -155 16
-30 72 -70 99 -70 26 0 19 13 -24 43 -46 32 -57 62 -41 110 26 79 136 147 289
179 85 18 120 19 277 14 99 -3 210 -9 246 -12 l67 -7 -20 -33 c-35 -59 -37
-194 -2 -194 12 0 14 7 8 35 -8 44 26 105 94 166 60 55 67 66 52 84 -18 22
-49 18 -84 -8 l-31 -23 -175 22 c-223 29 -415 31 -517 4z"/>
<path d="M585 1228 c-60 -33 -123 -114 -130 -167 -2 -14 -51 -119 -109 -232
-100 -198 -132 -288 -110 -309 37 -33 84 -10 139 70 37 53 24 64 -21 17 -98
-100 -70 6 64 245 111 199 221 328 278 328 34 0 30 26 -6 45 -34 18 -77 19
-105 3z"/>
</g>
</svg>
